<svg xmlns="http://www.w3.org/2000/svg" style="display:none">
  <!-- Material Symbols (Outlined, wght: 400, FILL: 0) -->
  <symbol id="architecture" viewBox="0 0 24 24"><path d="M12 3c-1.66 0-3 1.37-3 3.07 0 1.04.52 1.95 1.3 2.51l-2.17 6.97c-.04.01-.08.02-.13.02-1.1 0-2 .9-2 2s.9 2 2 2 2-.9 2-2c0-.1-.02-.19-.04-.28l2.87-2.22c.36.21.77.35 1.21.39l.84 3.36c-.37.29-.74.82-.74 1.44 0 1.1.9 2 2 2s2-.9 2-2-.9-2-2-2c-.18 0-.35.02-.51.07l-.84-3.36c.71-.44 1.24-1.17 1.39-2.03l3.51-2.63c.26.17.57.27.9.27.93 0 1.69-.76 1.69-1.69s-.76-1.69-1.69-1.69-1.69.76-1.69 1.69c0 .12.02.24.05.35l-3.42 2.56c-.51-.55-1.2-.91-1.95-1.01l-1.61-5.15c.53-.38 1.06-1.3 1.06-2.29C15 4.37 13.66 3 12 3zm0 1.5c.87 0 1.57.7 1.57 1.57 0 .87-.7 1.57-1.57 1.57s-1.57-.7-1.57-1.57c0-.87.7-1.57 1.57-1.57z"/></symbol>
  <symbol id="arrow_back" viewBox="0 0 24 24"><path d="M20 11H7.83l5.59-5.59L12 4l-8 8 8 8 1.41-1.41L7.83 13H20v-2z"/></symbol>
  <symbol id="arrow_forward" viewBox="0 0 24 24"><path d="M12 4l-1.41 1.41L16.17 11H4v2h12.17l-5.58 5.59L12 20l8-8-8-8z"/></symbol>
  <symbol id="calendar_month" viewBox="0 0 24 24"><path d="M19 4h-1V2h-2v2H8V2H6v2H5c-1.1 0-2 .9-2 2v14c0 1.1.9 2 2 2h14c1.1 0 2-.9 2-2V6c0-1.1-.9-2-2-2zm0 16H5V10h14v10zM9 14H7v-2h2v2zm4 0h-2v-2h2v2zm4 0h-2v-2h2v2zm-8 4H7v-2h2v2zm4 0h-2v-2h2v2zm4 0h-2v-2h2v2z"/></symbol>
  <symbol id="check_circle" viewBox="0 0 24 24"><path d="M12 2C6.48 2 2 6.48 2 12s4.48 10 10 10 10-4.48 10-10S17.52 2 12 2zm-2 15l-5-5 1.41-1.41L10 14.17l7.59-7.59L19 8l-9 9z"/></symbol>
  <symbol id="checklist" viewBox="0 0 24 24"><path d="M11 7h8v2h-8V7zm0 4h8v2h-8v-2zm0 4h8v2h-8v-2zM5.5 7L7 8.5 4.5 11 3 9.5 5.5 7zm0 4L7 12.5 4.5 15 3 13.5 5.5 11zm0 4L7 16.5 4.5 19 3 17.5 5.5 15z"/></symbol>
  <symbol id="close" viewBox="0 0 24 24"><path d="M19 6.41L17.59 5 12 10.59 6.41 5 5 6.41 10.59 12 5 17.59 6.41 19 12 13.41 17.59 19 19 17.59 13.41 12 19 6.41z"/></symbol>
  <symbol id="cloud_done" viewBox="0 0 24 24"><path d="M19.35 10.04C18.67 6.59 15.64 4 12 4 9.11 4 6.6 5.64 5.35 8.04 2.34 8.36 0 10.91 0 14c0 3.31 2.69 6 6 6h13c2.76 0 5-2.24 5-5 0-2.64-2.05-4.78-4.65-4.96zM10 17l-3.5-3.5 1.41-1.41L10 14.17 15.18 9l1.41 1.41L10 17z"/></symbol>
  <symbol id="code" viewBox="0 0 24 24"><path d="M9.4 16.6L4.8 12l4.6-4.6L8 6l-6 6 6 6 1.4-1.4zm5.2 0l4.6-4.6-4.6-4.6L16 6l6 6-6 6-1.4-1.4z"/></symbol>
  <symbol id="database" viewBox="0 0 24 24"><path d="M12 3C7.58 3 4 4.79 4 7c0 2.21 3.58 4 8 4s8-1.79 8-4c0-2.21-3.58-4-8-4zM4 9v3c0 2.21 3.58 4 8 4s8-1.79 8-4V9c0 2.21-3.58 4-8 4S4 11.21 4 9zm0 5v3c0 2.21 3.58 4 8 4s8-1.79 8-4v-3c0 2.21-3.58 4-8 4S4 16.21 4 14z"/></symbol>
  <symbol id="description" viewBox="0 0 24 24"><path d="M14 2H6c-1.1 0-1.99.9-1.99 2L4 20c0 1.1.89 2 1.99 2H18c1.1 0 2-.9 2-2V8l-6-6zm2 16H8v-2h8v2zm0-4H8v-2h8v2zm-3-5V3.5L18.5 9H13z"/></symbol>
  <symbol id="desktop_windows" viewBox="0 0 24 24"><path d="M21 2H3c-1.1 0-2 .9-2 2v16c0 1.1.9 2 2 2h7v2H8v2h8v-2h-2v-2h7c1.1 0 2-.9 2-2V4c0-1.1-.9-2-2-2zm0 18H3V4h18v16z"/></symbol>
  <symbol id="dns" viewBox="0 0 24 24"><path d="M20 13H4c-1.1 0-2 .9-2 2v5c0 1.1.9 2 2 2h16c1.1 0 2-.9 2-2v-5c0-1.1-.9-2-2-2zm0 7H4v-5h16v5zM20 2H4c-1.1 0-2 .9-2 2v5c0 1.1.9 2 2 2h16c1.1 0 2-.9 2-2V4c0-1.1-.9-2-2-2zm0 7H4V4h16v5zM6 18c-.55 0-1-.45-1-1s.45-1 1-1 1 .45 1 1-.45 1-1 1zM6 7c-.55 0-1-.45-1-1s.45-1 1-1 1 .45 1 1-.45 1-1 1z"/></symbol>
  <symbol id="error" viewBox="0 0 24 24"><path d="M12 2C6.48 2 2 6.48 2 12s4.48 10 10 10 10-4.48 10-10S17.52 2 12 2zm-2 15l-5-5 1.41-1.41L10 14.17l7.59-7.59L19 8l-9 9z"/></symbol>
  <symbol id="flag" viewBox="0 0 24 24"><path d="M14.4 6L14 4H5v17h2v-7h5.6l.4 2h7V6z"/></symbol>
  <symbol id="forum" viewBox="0 0 24 24"><path d="M21 6h-2v9H6v2c0 .55.45 1 1 1h11l4 4V7c0-.55-.45-1-1-1zm-4 6V3c0-.55-.45-1-1-1H3c-.55 0-1 .45-1 1v14l4-4h10c.55 0 1-.45 1-1z"/></symbol>
  <symbol id="grid_view" viewBox="0 0 24 24"><path d="M3 3v8h8V3H3zm10 0v8h8V3h-8zM3 13v8h8v-8H3zm10 0v8h8v-8h-8z"/></symbol>
  <symbol id="groups" viewBox="0 0 24 24"><path d="M12 12.75c1.63 0 3.07.39 4.24.9 1.08.48 1.76 1.56 1.76 2.73V18H6v-1.61c0-1.18.68-2.26 1.76-2.73 1.17-.52 2.61-.91 4.24-.91zM4 13c1.1 0 2-.9 2-2s-.9-2-2-2-2 .9-2 2 .9 2 2 2zm1.13 1.1c-.37-.06-.74-.1-1.13-.1-.99 0-1.93.21-2.78.58C.48 14.9 0 15.62 0 16.43V18h4.5v-1.61c0-.83.23-1.61.63-2.29zM20 13c1.1 0 2-.9 2-2s-.9-2-2-2-2 .9-2 2 .9 2 2 2zm4 3.43c0-.81-.48-1.53-1.22-1.85-.85-.37-1.79-.58-2.78-.58-.39 0-.76.04-1.13.1.4.68.63 1.46.63 2.29V18H24v-1.57zM12 6c1.66 0 3 1.34 3 3s-1.34 3-3 3-3-1.34-3-3 1.34-3 3-3z"/></symbol>
  <symbol id="hourglass_top" viewBox="0 0 24 24"><path d="M18 4v2c0 2.28-1.32 4.29-3.29 5.26.13.19.24.38.36.58.56.95.93 2.22.93 4.16v2h2v2H6v-2h2v-2c0-1.95.37-3.21.93-4.16.12-.2.23-.39.36-.58C7.32 10.29 6 8.28 6 6V4H4V2h16v2h-2zM12 12c1.53 0 2.68-1.19 2.92-2.78.02-.08-.88-.22-2.92-.22-2.05 0-2.95.14-2.92.22C9.32 10.81 10.47 12 12 12z"/></symbol>
  <symbol id="hub" viewBox="0 0 24 24"><path d="M21.9 13.72c-.29-2.58-2.03-4.71-4.39-5.65.08-.36.13-.73.13-1.11 0-2.76-2.24-5-5-5s-5 2.24-5 5c0 .38.05.76.14 1.12C5.12 8.22 4.08 9.57 3.58 11.19 2.2 11.57 1.16 12.85 1.05 14.38.93 16.11 2.28 17.58 4 17.67c.09.01.18.04.27.09l3.5 3.5c.2.2.45.36.73.45C8.52 21.54 8.26 21.87 8 22c.55 0 1-.45 1-1 0-.32-.12-.59-.32-.8l.79-.79c.16.39.51.7.94.8.64.17 1.3.27 1.96.3L12 18.87l-.37 1.64c.66-.03 1.32-.13 1.96-.3.44-.11.79-.41.95-.8l.79.79c-.2.21-.32.48-.32.8 0 .55.45 1 1 1 1.1 0 2-.9 2-2 0-.55-.23-1.05-.59-1.41l.77-.77c.09-.05.18-.08.27-.09 1.72-.09 3.07-1.56 2.95-3.29z"/></symbol>
  <symbol id="image" viewBox="0 0 24 24"><path d="M21 19V5c0-1.1-.9-2-2-2H5c-1.1 0-2 .9-2 2v14c0 1.1.9 2 2 2h14c1.1 0 2-.9 2-2zM8.5 13.5l2.5 3.01L14.5 12l4.5 6H5l3.5-4.5z"/></symbol>
  <symbol id="install_mobile" viewBox="0 0 24 24"><path d="M17 1.01L7 1c-1.1 0-2 .9-2 2v18c0 1.1.9 2 2 2h10c1.1 0 2-.9 2-2V3c0-1.1-.9-1.99-2-1.99zM17 19H7V5h10v14z"/></symbol>
  <symbol id="javascript" viewBox="0 0 24 24"><path d="M9.4 16.6L4.8 12l4.6-4.6L8 6l-6 6 6 6 1.4-1.4zm5.2 0l4.6-4.6-4.6-4.6L16 6l6 6-6 6-1.4-1.4z"/></symbol>
  <symbol id="language" viewBox="0 0 24 24"><path d="M11.99 2C6.47 2 2 6.48 2 12s4.47 10 9.99 10C17.52 22 22 17.52 22 12S17.52 2 11.99 2zm6.93 6h-3.68c-.21-1.1-.55-2.11-.98-3.01 1.9.64 3.63 1.67 4.66 3.01zM12 4.04c.83 1.2 1.48 2.53 1.91 3.96h-3.82c.43-1.43 1.08-2.76 1.91-3.96zM4.26 14c-.16-.64-.26-1.31-.26-2s.1-1.36.26-2h3.38c-.08.66-.14 1.32-.14 2s.06 1.34.14 2H4.26zM5.08 16h3.68c.21 1.1.55 2.11.98 3.01-1.9-.64-3.63-1.67-4.66-3.01zM8.76 8H5.08c1.03-1.34 2.76-2.37 4.66-3.01-.43.9-.77 1.91-.98 3.01zM12 19.96c-.83-1.2-1.48-2.53-1.91-3.96h3.82c-.43 1.43-1.08 2.76-1.91 3.96zM14.34 14H9.66c-.09-.66-.16-1.32-.16-2s.07-1.35.16-2h4.68c.09.65.16 1.32.16 2s-.07 1.34-.16 2zm.92 5.01c.43-.9.77-1.91.98-3.01h3.68c-1.03 1.34-2.76 2.37-4.66 3.01zM16.38 14c.08-.66.14-1.32.14-2s-.06-1.34-.14-2h3.38c.16.64.26 1.31.26 2s-.1 1.36-.26 2h-3.38z"/></symbol>
  <symbol id="layers" viewBox="0 0 24 24"><path d="M12 16l-7.07-4.42-1.37.86L12 17.71l8.44-5.27-1.37-.86L12 16zm0-3l-7.07-4.42-1.37.86L12 14.71l8.44-5.27-1.37-.86L12 13zm0-3l8.44-5.27L12 0 3.56 4.73 12 10z"/></symbol>
  <symbol id="location_on" viewBox="0 0 24 24"><path d="M12 2C8.13 2 5 5.13 5 9c0 5.25 7 13 7 13s7-7.75 7-13c0-3.87-3.13-7-7-7zm0 9.5c-1.38 0-2.5-1.12-2.5-2.5s1.12-2.5 2.5-2.5 2.5 1.12 2.5 2.5-1.12 2.5-2.5 2.5z"/></symbol>
  <symbol id="mail" viewBox="0 0 24 24"><path d="M20 4H4c-1.1 0-2 .9-2 2v12c0 1.1.9 2 2 2h16c1.1 0 2-.9 2-2V6c0-1.1-.9-2-2-2zm0 4l-8 5-8-5V6l8 5 8-5v2z"/></symbol>
  <symbol id="menu" viewBox="0 0 24 24"><path d="M3 18h18v-2H3v2zm0-5h18v-2H3v2zm0-7v2h18V6H3z"/></symbol>
  <symbol id="monitoring" viewBox="0 0 24 24"><path d="M19 12h2v7h-2v-7zm-4 2h2v5h-2v-5zm-4-4h2v9h-2V10zm-4 2h2v7H7v-7zm-4 4h2v3H3v-3zm0-4h2v3H3v-3zm0-4h2v3H3V6zm0-4h2v3H3V2z"/></symbol>
  <symbol id="neurology" viewBox="0 0 24 24"><path d="M15.75 2c-1.2 0-2.27.53-3 1.36-.73-.83-1.8-1.36-3-1.36-2.21 0-4 1.79-4 4 0 .2.02.39.05.58C4.53 7.09 3 9.15 3 11.58c0 1.62.76 3.06 1.95 3.98C4.35 16.6 4 17.53 4 18.5c0 1.93 1.57 3.5 3.5 3.5.87 0 1.66-.32 2.27-.85.61.53 1.4.85 2.27.85.87 0 1.66-.32 2.27-.85.61.53 1.4.85 2.27.85 1.93 0 3.5-1.57 3.5-3.5 0-.97-.35-1.9-.95-2.63C19.29 14.64 20 13.2 20 11.58c0-2.43-1.53-4.49-3.7-5.24.03-.19.05-.38.05-.58 0-2.21-1.79-4-4-4zm-3.4 7.63c-.37.71-1.1 1.2-1.94 1.2-.95 0-1.76-.62-2.03-1.48C8.16 8.63 8 8.13 8 7.58c0-1.1.9-2 2-2 .64 0 1.2.3 1.57.77.34.43.54.96.54 1.53 0 .44-.12.86-.34 1.22.22-.36.6-.61 1.04-.61 1.1 0 2 .9 2 2 0 .38-.11.73-.29 1.03.18-.3.53-.51.92-.51 1.1 0 2 .9 2 2s-.9 2-2 2c-.73 0-1.36-.39-1.7-.97-.45-.77-.36-1.75.19-2.42.17-.21.38-.39.62-.52-.31.15-.67.24-1.05.24-1.1 0-2-.9-2-2 0-.38.11-.73.29-1.03z"/></symbol>
  <symbol id="palette" viewBox="0 0 24 24"><path d="M12 2C6.49 2 2 6.49 2 12s4.49 10 10 10c1.38 0 2.5-1.12 2.5-2.5 0-.61-.23-1.16-.59-1.59-.19-.21-.31-.48-.31-.78 0-.61.49-1.1 1.1-1.1h1.28c3.31 0 6.02-2.71 6.02-6.02C22 4.82 17.18 2 12 2zM6.5 12c-.83 0-1.5-.67-1.5-1.5S5.67 9 6.5 9 8 9.67 8 10.5 7.33 12 6.5 12zm3-4C8.67 8 8 7.33 8 6.5S8.67 5 9.5 5s1.5.67 1.5 1.5S10.33 8 9.5 8zm5 0c-.83 0-1.5-.67-1.5-1.5S13.67 5 14.5 5s1.5.67 1.5 1.5S15.33 8 14.5 8zm3 4c-.83 0-1.5-.67-1.5-1.5s.67-1.5 1.5-1.5 1.5.67 1.5 1.5-.67 1.5-1.5 1.5z"/></symbol>
  <symbol id="payments" viewBox="0 0 24 24"><path d="M19 14V6c0-1.1-.9-2-2-2H3c-1.1 0-2 .9-2 2v8c0 1.1.9 2 2 2h14c1.1 0 2-.9 2-2zm-2 0H3V6h14v8zm-7-7c-1.66 0-3 1.34-3 3s1.34 3 3 3 3-1.34 3-3-1.34-3-3-3zm13 0v11c0 1.1-.9 2-2 2H4v-2h17V7h2z"/></symbol>
  <symbol id="request_quote" viewBox="0 0 24 24"><path d="M14 2H6c-1.1 0-2 .9-2 2v16c0 1.1.9 2 2 2h12c1.1 0 2-.9 2-2V8l-6-6zm0 18H6V4h7v5h5v11zm-5-3l-4-4 1.41-1.41L9 14.17l5.59-5.59L16 10l-7 7z"/></symbol>
  <symbol id="rocket" viewBox="0 0 24 24"><path d="M12 2c-3.31 0-6 2.69-6 6 0 2.57 1.68 4.75 4 5.53V18l2 2 2-2v-4.47c2.32-.78 4-2.96 4-5.53 0-3.31-2.69-6-6-6zm0 8c-1.1 0-2-.9-2-2s.9-2 2-2 2 .9 2 2-.9 2-2 2zm-4 8c0 1.1.9 2 2 2h4c1.1 0 2-.9 2-2v-1H8v1z"/></symbol>
  <symbol id="rocket_launch" viewBox="0 0 24 24"><path d="M9.19 6.35c-2.04 2.29-3.44 5.58-3.57 5.89L2 10.69l4.81-4.81 2.38.47zM11.17 17c0 0 3.74-1.55 5.89-3.7 5.4-5.4 4.5-9.62 4.21-10.57-.95-.29-5.17-1.19-10.57 4.21C8.55 9.09 7 12.83 7 12.83L11.17 17zm6.48-2.11c-2.29 2.04-5.58 3.44-5.89 3.57L13.31 22l4.81-4.81-.47-2.38.03.03zM9 18c-1.1 0-2 .9-2 2s.9 2 2 2 2-.9 2-2-.9-2-2-2z"/></symbol>
  <symbol id="schedule" viewBox="0 0 24 24"><path d="M11.99 2C6.47 2 2 6.48 2 12s4.47 10 9.99 10C17.52 22 22 17.52 22 12S17.52 2 11.99 2zM12 20c-4.42 0-8-3.58-8-8s3.58-8 8-8 8 3.58 8 8-3.58 8-8 8zm.5-13H11v6l5.25 3.15.75-1.23-4.5-2.67V7z"/></symbol>
  <symbol id="search" viewBox="0 0 24 24"><path d="M15.5 14h-.79l-.28-.27C15.41 12.59 16 11.11 16 9.5 16 5.91 13.09 3 9.5 3S3 5.91 3 9.5 5.91 16 9.5 16c1.61 0 3.09-.59 4.23-1.57l.27.28v.79l5 4.99L20.49 19l-4.99-5zm-6 0C7.01 14 5 11.99 5 9.5S7.01 5 9.5 5 14 7.01 14 9.5 11.99 14 9.5 14z"/></symbol>
  <symbol id="send" viewBox="0 0 24 24"><path d="M2.01 21L23 12 2.01 3 2 10l15 2-15 2 .01 7z"/></symbol>
  <symbol id="share" viewBox="0 0 24 24"><path d="M18 16.08c-.76 0-1.44.3-1.96.77L8.91 12.7c.05-.23.09-.46.09-.7s-.04-.47-.09-.7l7.05-4.11c.54.5 1.25.81 2.04.81 1.66 0 3-1.34 3-3s-1.34-3-3-3-3 1.34-3 3c0 .24.04.47.09.7L8.04 9.81C7.5 9.31 6.79 9 6 9c-1.66 0-3 1.34-3 3s1.34 3 3 3c.79 0 1.5-.31 2.04-.81l7.12 4.16c-.05.21-.08.43-.08.65 0 1.61 1.31 2.92 2.92 2.92 1.61 0 2.92-1.31 2.92-2.92s-1.31-2.92-2.92-2.92z"/></symbol>
  <symbol id="speed" viewBox="0 0 24 24"><path d="M19.46 10.04c-.97-1.72-2.59-2.98-4.47-3.55l.82-3.23 1.86.47-.71 2.8c.44.21.85.46 1.23.76l1.96-1.45 1.22 1.64-1.91 1.42c.31.6.53 1.25.67 1.94l.85-.16v1l-.83.16c-.14.69-.36 1.34-.67 1.94l1.91 1.42-1.22 1.64-1.96-1.45c-.38.3-.79.55-1.23.76l.71 2.8-1.86.47-.82-3.23c-.26.05-.53.09-.8.12v-1c.27-.03.54-.07.8-.12l.82 3.23 1.86-.47-.71-2.8c.44-.21.85-.46 1.23-.76l1.96 1.45 1.22-1.64-1.91-1.42c.31-.6.53-1.25.67-1.94l.83-.16v-1l-.83.16c-.14-.69-.36-1.34-.67-1.94l1.91-1.42-1.22-1.64-1.96 1.45c-.38-.3-.79-.55-1.23-.76l.71-2.8-1.86-.47-.82 3.23c-.26-.05-.53-.09-.8-.12v-1c.27.03.54.07.8.12zM12 17c-2.21 0-4-1.79-4-4s1.79-4 4-4 4 1.79 4 4-1.79 4-4 4zm0-6c-1.1 0-2 .9-2 2s.9 2 2 2 2-.9 2-2-.9-2-2-2z"/></symbol>
  <symbol id="storage" viewBox="0 0 24 24"><path d="M2 20h20v-4H2v4zm2-3h2v2H4v-2zM2 4v4h20V4H2zm4 3H4V5h2v2zm-4 7h20v-4H2v4zm2-3h2v2H4v-2z"/></symbol>
  <symbol id="support_agent" viewBox="0 0 24 24"><path d="M21 12.22C21 6.73 16.74 3 12 3c-4.69 0-9 3.65-9 9.28-.6.34-1 .98-1 1.72v2c0 1.1.9 2 2 2h1v-6.1c0-3.87 3.13-7 7-7s7 3.13 7 7V19h-8v2h8c1.1 0 2-.9 2-2v-1.22c.59-.31 1-.92 1-1.64v-2.3c0-.7-.41-1.31-1-1.62z"/><circle cx="9" cy="13" r="1"/><circle cx="15" cy="13" r="1"/><path d="M18 11.03C17.52 8.18 15.04 6 12.05 6c-3.03 0-6.29 2.51-6.03 6.45 2.47-1.01 4.33-3.21 4.86-5.89 1.31 2.63 4 4.44 7.12 4.47z"/></symbol>
  <symbol id="sync" viewBox="0 0 24 24"><path d="M12 4V1L8 5l4 4V6c3.31 0 6 2.69 6 6 0 1.01-.25 1.97-.7 2.8l1.46 1.46C19.54 15.03 20 13.57 20 12c0-4.42-3.58-8-8-8zm0 14c-3.31 0-6-2.69-6-6 0-1.01.25-1.97.7-2.8L5.24 7.74C4.46 8.97 4 10.43 4 12c0 4.42 3.58 8 8 8v3l4-4-4-4v3z"/></symbol>
  <symbol id="terminal" viewBox="0 0 24 24"><path d="M20 4H4c-1.1 0-2 .9-2 2v12c0 1.1.9 2 2 2h16c1.1 0 2-.9 2-2V6c0-1.1-.9-2-2-2zm0 14H4V6h16v12zM6.49 10.5L8.99 13l-2.5 2.5L8 17l4-4-4-4-1.51 1.5zM14 15h5v2h-5v-2z"/></symbol>
  <symbol id="timer" viewBox="0 0 24 24"><path d="M15 1H9v2h6V1zm-4 13h2V8h-2v6zm8.03-6.61l1.42-1.42c-.43-.51-.9-.99-1.41-1.41l-1.42 1.42C16.07 4.74 14.12 4 12 4c-4.97 0-9 4.03-9 9s4.02 9 9 9 9-4.03 9-9c0-2.12-.74-4.07-1.97-5.61zM12 20c-3.87 0-7-3.13-7-7s3.13-7 7-7 7 3.13 7 7-3.13 7-7 7z"/></symbol>
  <symbol id="view_quilt" viewBox="0 0 24 24"><path d="M3 5v14h18V5H3zm5.33 12H5V7h3.33v10zm5.34 0h-3.33v-4h3.33v4zM19 17h-3.33v-4H19v4zm0-6h-8.67V7H19v4z"/></symbol>
  <symbol id="visibility" viewBox="0 0 24 24"><path d="M12 6c-3.79 0-7.17 2.13-8.82 5.5C4.83 14.87 8.21 17 12 17s7.17-2.13 8.82-5.5C19.17 8.13 15.79 6 12 6zm0 9c-1.94 0-3.5-1.56-3.5-3.5S10.06 8 12 8s3.5 1.56 3.5 3.5S13.94 15 12 15zm0-5.5c-.55 0-1 .45-1 1s.45 1 1 1 1-.45 1-1-.45-1-1-1z"/></symbol>
  <symbol id="wifi" viewBox="0 0 24 24"><path d="M1 9l2 2c4.97-4.97 13.03-4.97 18 0l2-2C16.93 2.93 7.08 2.93 1 9zm8 8l3 3 3-3c-1.65-1.66-4.34-1.66-6 0zm-4-4l2 2c2.76-2.76 7.24-2.76 10 0l2-2C15.14 9.14 8.87 9.14 5 13z"/></symbol>
  <symbol id="zoom_out_map" viewBox="0 0 24 24"><path d="M15 3l2.3 2.3-2.89 2.87 1.42 1.42L18.7 6.7 21 9V3h-6zM3 9l2.3-2.3 2.87 2.89 1.42-1.42L6.7 5.3 9 3H3v6zm6 12l-2.3-2.3 2.89-2.87-1.42-1.42L5.3 17.3 3 15v6h6zm12-6l-2.3 2.3-2.87-2.89-1.42 1.42 2.89 2.87L15 21h6v-6z"/></symbol>
  <symbol id="payments" viewBox="0 0 24 24"><path d="M19 14V6c0-1.1-.9-2-2-2H3c-1.1 0-2 .9-2 2v8c0 1.1.9 2 2 2h14c1.1 0 2-.9 2-2zm-2 0H3V6h14v8zm-7-7c-1.66 0-3 1.34-3 3s1.34 3 3 3 3-1.34 3-3-1.34-3-3-3zm13 0v11c0 1.1-.9 2-2 2H4v-2h17V7h2z"/></symbol>

  <!-- Tech logo symbols (existing) -->
  <symbol id="vue" viewBox="0 0 24 24">
    <path fill="#4FC08D" d="M24,1.61H14.06L12,5.16,9.94,1.61H0L12,22.39ZM12,14.08,5.16,2.23H9.59L12,6.41l2.41-4.18h4.43Z"/>
  </symbol>
  <symbol id="node" viewBox="0 0 24 24">
    <path fill="#5FA04E" d="M11.998,24c-0.321,0-0.641-0.084-0.922-0.247l-2.936-1.737c-0.438-0.245-0.224-0.332-0.08-0.383 c0.585-0.203,0.703-0.25,1.328-0.604c0.065-0.037,0.151-0.023,0.218,0.017l2.256,1.339c0.082,0.045,0.197,0.045,0.272,0l8.795-5.076 c0.082-0.047,0.134-0.141,0.134-0.238V6.921c0-0.099-0.053-0.192-0.137-0.242l-8.791-5.072c-0.081-0.047-0.189-0.047-0.271,0 L3.075,6.68C2.99,6.729,2.936,6.825,2.936,6.921v10.15c0,0.097,0.054,0.189,0.139,0.235l2.409,1.392 c1.307,0.654,2.108-0.116,2.108-0.89V7.787c0-0.142,0.114-0.253,0.256-0.253h1.115c0.139,0,0.255,0.112,0.255,0.253v10.021 c0,1.745-0.95,2.745-2.604,2.745c-0.508,0-0.909,0-2.026-0.551L2.28,18.675c-0.57-0.329-0.922-0.945-0.922-1.604V6.921 c0-0.659,0.353-1.275,0.922-1.603l8.795-5.082c0.557-0.315,1.296-0.315,1.848,0l8.794,5.082c0.57,0.329,0.924,0.944,0.924,1.603 v10.15c0,0.659-0.354,1.273-0.924,1.604l-8.794,5.078C12.643,23.916,12.324,24,11.998,24z M19.099,13.993 c0-1.9-1.284-2.406-3.987-2.763c-2.731-0.361-3.009-0.548-3.009-1.187c0-0.528,0.235-1.233,2.258-1.233 c1.807,0,2.473,0.389,2.747,1.607c0.024,0.115,0.129,0.199,0.247,0.199h1.141c0.071,0,0.138-0.031,0.186-0.081 c0.048-0.054,0.074-0.123,0.067-0.196c-0.177-2.098-1.571-3.076-4.388-3.076c-2.508,0-4.004,1.058-4.004,2.833 c0,1.925,1.488,2.457,3.895,2.695c2.88,0.282,3.103,0.703,3.103,1.269c0,0.983-0.789,1.402-2.642,1.402 c-2.327,0-2.839-0.584-3.011-1.742c-0.02-0.124-0.126-0.215-0.253-0.215h-1.137c-0.141,0-0.254,0.112-0.254,0.253 c0,1.482,0.806,3.248,4.655,3.248C17.501,17.007,19.099,15.91,19.099,13.993z"/>
  </symbol>
  <symbol id="typescript" viewBox="0 0 24 24">
    <path fill="#3178C6" d="M1.125 0C.502 0 0 .502 0 1.125v21.75C0 23.498.502 24 1.125 24h21.75c.623 0 1.125-.502 1.125-1.125V1.125C24 .502 23.498 0 22.875 0zm17.363 9.75c.612 0 1.154.037 1.627.111a6.38 6.38 0 0 1 1.306.34v2.458a3.95 3.95 0 0 0-.643-.361 5.093 5.093 0 0 0-.717-.26 5.453 5.453 0 0 0-1.426-.2c-.3 0-.573.028-.819.086a2.1 2.1 0 0 0-.623.242c-.17.104-.3.229-.393.374a.888.888 0 0 0-.14.49c0 .196.053.373.156.529.104.156.252.304.443.444s.423.276.696.41c.273.135.582.274.926.416.47.197.892.407 1.266.628.374.222.695.473.963.753.268.279.472.598.614.957.142.359.214.776.214 1.253 0 .657-.125 1.21-.373 1.656a3.033 3.033 0 0 1-1.012 1.085 4.38 4.38 0 0 1-1.487.596c-.566.12-1.163.18-1.79.18a9.916 9.916 0 0 1-1.84-.164 5.544 5.544 0 0 1-1.512-.493v-2.63a5.033 5.033 0 0 0 3.237 1.2c.333 0 .624-.03.872-.09.249-.06.456-.144.623-.25.166-.108.29-.234.373-.38a1.023 1.023 0 0 0-.074-1.089 2.12 2.12 0 0 0-.537-.5 5.597 5.597 0 0 0-.807-.444 27.72 27.72 0 0 0-1.007-.436c-.918-.383-1.602-.852-2.053-1.405-.45-.553-.676-1.222-.676-2.005 0-.614.123-1.141.369-1.582.246-.441.58-.804 1.004-1.089a4.494 4.494 0 0 1 1.47-.629 7.536 7.536 0 0 1 1.77-.201zm-15.113.188h9.563v2.166H9.506v9.646H6.789v-9.646H3.375z"/>
  </symbol>
  <symbol id="postgres" viewBox="0 0 24 24">
    <path fill="#4169E1" d="M23.5594 14.7228a.5269.5269 0 0 0-.0563-.1191c-.139-.2632-.4768-.3418-1.0074-.2321-1.6533.3411-2.2935.1312-2.5256-.0191 1.342-2.0482 2.445-4.522 3.0411-6.8297.2714-1.0507.7982-3.5237.1222-4.7316a1.5641 1.5641 0 0 0-.1509-.235C21.6931.9086 19.8007.0248 17.5099.0005c-1.4947-.0158-2.7705.3461-3.1161.4794a9.449 9.449 0 0 0-.5159-.0816 8.044 8.044 0 0 0-1.3114-.1278c-1.1822-.0184-2.2038.2642-3.0498.8406-.8573-.3211-4.7888-1.645-7.2219.0788C.9359 2.1526.3086 3.8733.4302 6.3043c.0409.818.5069 3.334 1.2423 5.7436.4598 1.5065.9387 2.7019 1.4334 3.582.553.9942 1.1259 1.5933 1.7143 1.7895.4474.1491 1.1327.1441 1.8581-.7279.8012-.9635 1.5903-1.8258 1.9446-2.2069.4351.2355.9064.3625 1.39.3772a.0569.0569 0 0 0 .0004.0041 11.0312 11.0312 0 0 0-.2472.3054c-.3389.4302-.4094.5197-1.5002.7443-.3102.064-1.1344.2339-1.1464.8115-.0025.1224.0329.2309.0919.3268.2269.4231.9216.6097 1.015.6331 1.3345.3335 2.5044.092 3.3714-.6787-.017 2.231.0775 4.4174.3454 5.0874.2212.5529.7618 1.9045 2.4692 1.9043.2505 0 .5263-.0291.8296-.0941 1.7819-.3821 2.5557-1.1696 2.855-2.9059.1503-.8707.4016-2.8753.5388-4.1012.0169-.0703.0357-.1207.057-.1362.0007-.0005.0697-.0471.4272.0307a.3673.3673 0 0 0 .0443.0068l.2539.0223.0149.001c.8468.0384 1.9114-.1426 2.5312-.4308.6438-.2988 1.8057-1.0323 1.5951-1.6698zM2.371 11.8765c-.7435-2.4358-1.1779-4.8851-1.2123-5.5719-.1086-2.1714.4171-3.6829 1.5623-4.4927 1.8367-1.2986 4.8398-.5408 6.108-.13-.0032.0032-.0066.0061-.0098.0094-2.0238 2.044-1.9758 5.536-1.9708 5.7495-.0002.0823.0066.1989.0162.3593.0348.5873.0996 1.6804-.0735 2.9184-.1609 1.1504.1937 2.2764.9728 3.0892.0806.0841.1648.1631.2518.2374-.3468.3714-1.1004 1.1926-1.9025 2.1576-.5677.6825-.9597.5517-1.0886.5087-.3919-.1307-.813-.5871-1.2381-1.3223-.4796-.839-.9635-2.0317-1.4155-3.5126zm6.0072 5.0871c-.1711-.0428-.3271-.1132-.4322-.1772.0889-.0394.2374-.0902.4833-.1409 1.2833-.2641 1.4815-.4506 1.9143-1.0002.0992-.126.2116-.2687.3673-.4426a.3549.3549 0 0 0 .0737-.1298c.1708-.1513.2724-.... (line truncated to 2000 chars)"/>
  </symbol>
  <symbol id="electron" viewBox="0 0 24 24">
    <path fill="#47848F" d="M12.0111 0c-.85 0-1.5392.6891-1.5392 1.5392 0 .8501.6891 1.5393 1.5392 1.5393.595 0 1.11-.338 1.3662-.832 2.2208 1.2675 3.847 5.4728 3.847 10.3623 0 2.0715-.2891 4.056-.825 5.7685a.3215.3215 0 0 0 .2107.403.322.322 0 0 0 .4033-.2111c.5558-1.7763.8542-3.8251.8542-5.9604 0-5.1927-1.7717-9.686-4.3206-11.0027.001-.0223.0035-.0443.0035-.0669 0-.85-.6891-1.5392-1.5393-1.5392zm0 .6432a.896.896 0 1 1 0 1.792.896.896 0 1 1 0-1.792zm-5.486 4.3052c-2.067.0074-3.6473.6646-4.3885 1.9485-.7375 1.2774-.5267 2.971.5113 4.7813a.3217.3217 0 0 0 .558-.32C2.271 9.7274 2.089 8.266 2.6938 7.2185c.821-1.422 3.033-1.9552 5.9321-1.4271a.3216.3216 0 0 0 .1153-.6329c-.784-.1428-1.5271-.2125-2.216-.21zm11.0522.0176a.3216.3216 0 0 0-.0084.6432c1.8337.0239 3.1556.5956 3.7502 1.6256.8192 1.419.1798 3.5947-1.7182 5.837a.322.322 0 0 0 .0377.4535.3215.3215 0 0 0 .4532-.0377c2.0535-2.426 2.7708-4.8661 1.7845-6.5744-.7257-1.257-2.26-1.9207-4.299-1.9472zm-2.6984.2924a.3225.3225 0 0 0-.0647.0072c-1.8568.3979-3.8333 1.1755-5.7314 2.2714-4.5699 2.6384-7.5924 6.4948-7.3601 9.3717-.4726.2628-.7928.7664-.7928 1.3455 0 .85.6892 1.5392 1.5393 1.5392.85 0 1.5392-.6891 1.5392-1.5392 0-.8501-.6891-1.5393-1.5392-1.5393-.038 0-.0754.003-.1128.0057-.1002-2.5597 2.7434-6.1412 7.048-8.6265 1.8413-1.063 3.7551-1.8163 5.5445-2.1997a.3217.3217 0 0 0-.07-.636zm-2.8787 6.2364a1.1192 1.1192 0 0 0-.2243.0255c-.6012.1301-.983.7225-.8533 1.3238.1302.6012.7226.9832 1.3238.8533.6012-.1302.9832-.7226.8533-1.3238-.1139-.526-.5816-.8844-1.0995-.8788zM4.532 13.341a.321.321 0 0 0-.2318.0835.3214.3214 0 0 0-.0214.4542c1.2682 1.3936 2.9157 2.701 4.7946 3.7857 4.4146 2.5489 9.1056 3.2849 11.5608 1.8392a1.53 1.53 0 0 0 .8966.2899c.8501 0 1.5392-.6891 1.5392-1.5392 0-.8501-.689-1.5393-1.5392-1.5393-.85 0-1.5392.6892-1.5392 1.5393 0 .276.0737.5344.201.7584-2.2448 1.214-6.631.5002-10.7976-1.9054-1.8228-1.0524-3.418-2.3181-4.6404-3.6614a.3206.3206 0 0 0-.2226-.1049zm-2.0628 4.0172a.896.896 0 1 1 0 1.792.896.896 0 1 1 0-1.792z"/>
  </symbol>
  <symbol id="salesforce" viewBox="0 0 128 128">
    <path fill="#00A1E0" d="M53.01 31.44c3.98-4.14 9.51-6.71 15.64-6.71 8.14 0 15.24 4.54 19.02 11.28a26.26 26.26 0 0110.75-2.29c14.68 0 26.58 12.01 26.58 26.81 0 14.81-11.9 26.82-26.58 26.82-1.79 0-3.54-.18-5.24-.52-3.33 5.94-9.68 9.95-16.96 9.95-3.05 0-5.93-.7-8.5-1.96-3.38 7.94-11.24 13.51-20.41 13.51-9.55 0-17.68-6.04-20.8-14.51-1.36.29-2.78.44-4.23.44-11.37 0-20.58-9.31-20.58-20.79 0-7.7 4.14-14.42 10.29-18.01a23.727 23.727 0 01-1.97-9.51c0-13.21 10.72-23.92 23.95-23.92 7.76-.01 14.67 3.69 19.04 9.41"/>
    <path fill="#FFF" d="M19.56 66.78c-.08.2.03.24.05.28.23.17.47.29.7.43 1.26.67 2.44.86 3.69.86 2.53 0 4.1-1.35 4.1-3.51v-.04c0-2-1.77-2.73-3.44-3.25l-.22-.07c-1.25-.41-2.34-.76-2.34-1.58v-.04c0-.71.63-1.23 1.61-1.23 1.09 0 2.38.36 3.21.82 0 0 .24.16.33-.08.05-.13.47-1.26.51-1.38.05-.13-.04-.23-.12-.28-.95-.58-2.26-.97-3.62-.97h-.25c-2.31 0-3.93 1.4-3.93 3.4v.04c0 2.11 1.78 2.8 3.45 3.28l.27.08c1.22.37 2.27.7 2.27 1.55v.04c0 .78-.68 1.37-1.78 1.37-.43 0-1.79-.01-3.26-.94-.18-.1-.28-.18-.42-.26-.07-.05-.25-.12-.33.11l-.48 1.37zM56.59 66.78c-.08.2.03.24.05.28.23.17.47.29.7.43 1.26.67 2.44.86 3.69.86 2.53 0 4.1-1.35 4.1-3.51v-.04c0-2-1.77-2.73-3.44-3.25l-.22-.07c-1.25-.41-2.34-.76-2.34-1.58v-.04c0-.71.63-1.23 1.61-1.23 1.09 0 2.38.36 3.21.82 0 0 .24.16.33-.08.05-.13.47-1.26.51-1.38.05-.13-.04-.23-.12-.28-.95-.58-2.26-.97-3.62-.97h-.25c-2.31 0-3.93 1.4-3.93 3.4v.04c0 2.11 1.78 2.8 3.45 3.28l.27.08c1.22.37 2.27.7 2.27 1.55v.04c0 .78-.68 1.37-1.78 1.37-.43 0-1.79-.01-3.26-.94-.18-.1-.28-.18-.42-.26-.05-.03-.26-.11-.33.11l-.48 1.37z"/>
  </symbol>
  <symbol id="dotnet" viewBox="0 0 24 24">
    <path fill="#512BD4" d="M24 8.77h-2.468v7.565h-1.425V8.77h-2.462V7.53H24zm-6.852 7.565h-4.821V7.53h4.63v1.24h-3.205v2.494h2.953v1.234h-2.953v2.604h3.396zm-6.708 0H8.882L4.78 9.863a2.896 2.896 0 0 1-.258-.51h-.036c.032.189.048.592.048 1.21v5.772H3.157V7.53h1.659l3.965 6.32c.167.261.275.442.323.54h.024c-.04-.233-.06-.629-.06-1.185V7.529h1.372zm-8.703-.693a.868.829 0 0 1-.869.829.868.829 0 0 1-.868-.83.868.829 0 0 1 .868-.828.868.829 0 0 1 .869.829Z"/>
  </symbol>
  <symbol id="linux" viewBox="0 0 24 24">
    <path fill="#FCC624" d="M12.504 0c-.155 0-.315.008-.48.021-4.226.333-3.105 4.807-3.17 6.298-.076 1.092-.3 1.953-1.05 3.02-.885 1.051-2.127 2.75-2.716 4.521-.278.832-.41 1.684-.287 2.489a.424.424 0 00-.11.135c-.26.268-.45.6-.663.839-.199.199-.485.267-.797.4-.313.136-.658.269-.864.68-.09.189-.136.394-.132.602 0 .199.027.4.055.536.058.399.116.728.04.97-.249.68-.28 1.145-.106 1.484.174.334.535.47.94.601.81.2 1.91.135 2.774.6.926.466 1.866.67 2.616.47.526-.116.97-.464 1.208-.946.587-.003 1.23-.269 2.26-.334.699-.058 1.574.267 2.577.2.025.134.063.198.114.333l.003.003c.391.778 1.113 1.132 1.884 1.071.771-.06 1.592-.536 2.257-1.306.631-.765 1.683-1.084 2.378-1.503.348-.199.629-.469.649-.853.023-.4-.2-.811-.714-1.376v-.097l-.003-.003c-.17-.2-.25-.535-.338-.926-.085-.401-.182-.786-.492-1.046h-.003c-.059-.054-.123-.067-.188-.135a.357.357 0 00-.19-.064c.431-1.278.264-2.55-.173-3.694-.533-1.41-1.465-2.638-2.175-3.483-.796-1.005-1.576-1.957-1.56-3.368.026-2.152.236-6.133-3.544-6.139z"/>
  </symbol>
</svg>